# xmcd CD database file
#
# Track frame offsets:
#	150
#	41704
#	92388
#	130913
#	179703
#	219791
#	256928
#	301477
#
# Disc length: 4302 seconds
#
# Revision: 0
# Processed by: cddbd v1.5.1PL0 Copyright (c) Steve Scherf et al.
# Submitted via: CDex 1.51
#
DISCID=6810cc08
DTITLE=Kate Hammett-Vaughan Quintet - Eclipse
DYEAR=2004
DGENRE=Jazz
TTITLE0=All or Nothing At All
TTITLE1=For the Roses
TTITLE2=Eclipse
TTITLE3=Falling in Love With Love
TTITLE4=Tatamagouche Tango
TTITLE5=I Didn't Know What Time It Was
TTITLE6=Cold Blue Steel and Sweet Fire
TTITLE7=This is New
EXTD=YEAR: 2004
EXTT0=
EXTT1=
EXTT2=
EXTT3=
EXTT4=
EXTT5=
EXTT6=
EXTT7=
PLAYORDER=
